<?xml version="1.0" encoding="utf-8"?>
<!-- Generator: Adobe Illustrator 22.1.0, SVG Export Plug-In . SVG Version: 6.00 Build 0)  -->
<svg version="1.1" id="Layer_1" xmlns="http://www.w3.org/2000/svg" xmlns:xlink="http://www.w3.org/1999/xlink" x="0px" y="0px"
	 viewBox="0 0 612 354.1" style="enable-background:new 0 0 612 354.1;" xml:space="preserve">
<style type="text/css">
	.st0{fill:none;stroke:#FFFFFF;stroke-width:6.6813;stroke-miterlimit:10;}
	.st1{fill:#FFFFFF;stroke:#FFFFFF;stroke-width:6.6813;stroke-miterlimit:10;}
	.st2{fill:none;stroke:#FFFFFF;stroke-width:11.1355;stroke-miterlimit:10;}
</style>
<path class="st0" d="M12.3,312.4h91C91,251.2,147,184.8,147,184.8l-67.3-67.3C11.4,185.6,12.3,312.4,12.3,312.4z"/>
<path class="st0" d="M91,102.5l61.7,61.7c69.8-69.8,140.2-61.7,140.2-61.7V15.1C164.5,15.1,91,102.5,91,102.5z"/>
<path class="st0" d="M312.6,15.1v86c81.4,0,141.8,69.1,141.8,69.1l63.5-63.5C439.5,14.5,324.1,3.6,312.6,15.1z"/>
<path class="st0" d="M465.8,181.6l62.1-62.1c60.2,34.3,75.3,193,75.3,193h-93.7C509.6,223.6,465.8,181.6,465.8,181.6z"/>
<circle class="st1" cx="306" cy="312.4" r="38.3"/>
<line class="st2" x1="329.1" y1="281.8" x2="435.4" y2="175.6"/>
</svg>
