<?xml version="1.0" encoding="utf-8"?>
<!-- Generator: Adobe Illustrator 22.1.0, SVG Export Plug-In . SVG Version: 6.00 Build 0)  -->
<svg version="1.1" id="Layer_1" xmlns="http://www.w3.org/2000/svg" xmlns:xlink="http://www.w3.org/1999/xlink" x="0px" y="0px"
	 viewBox="0 0 1578.1 1870.5" style="enable-background:new 0 0 1578.1 1870.5;" xml:space="preserve">
<style type="text/css">
	.st0{fill:none;stroke:#FFFFFF;stroke-width:18.8208;stroke-miterlimit:10;}
	.st1{fill:none;}
	.st2{font-family:'EuphemiaUCAS';}
	.st3{font-size:571.9815px;}
	.st4{fill:#FFFFFF;stroke:#FFFFFF;stroke-width:18.8208;stroke-miterlimit:10;}
</style>
<g>
	<g>
		<path class="st0" d="M1220.9,668.4c-51-140-136.9-257.5-253.5-350.4c-28.1-22.4-32.8-38.3-13-69.2c27.6-43.2,48.9-90.3,73.4-135.6
			c33.3-62,33.3-72.9-22.9-102.3c-3.1,0.3-6.5,0.5-9.9,0.5c-7,0-14.1-0.8-20.8-1.8c-6.5,1.3-13.3,1.8-19.8,1.8
			c-2.9,0-5.7-0.3-8.6-0.3c-9.4,3.4-19.3,5.7-29.4,6.8c-23.4,9.9-48.7,15.4-74.2,15.9c-16.4,4.4-33.3,6.8-50.2,6.8
			c-2.3,0-4.4,0-6.8-0.3c-2.3,0-4.4,0.3-6.8,0.3c-18.7,0-37-2.6-53.9-7.3c-21.3-1.3-41.4-6-60.1-13.3c-14.3-0.5-28.4-2.3-41.7-5.5
			c-8.9,2.3-18,3.6-27.1,3.6c-4.7,0-9.4-0.3-14.1-0.8c-0.5,0-1,0.3-1.6,0.3c-16.4,7.3-32.5,15.6-47.1,27.6
			c-28.1,23.7-34.6,45-12,76.3c29.4,40.6,53.1,85.4,84.1,124.4c27.6,34.6,20.8,51.8-12,80.2C423.3,473.7,311.9,653.1,310.8,886
			c-0.5,119,93.2,211.9,212.7,212.7c173.6,1,347.3,0.8,520.6,0c101.3-0.5,182-61.7,206.4-161.1
			C1273.7,845.2,1252.4,754.8,1220.9,668.4z M589.6,120.7c-26.8-31-8.9-44.3,18-54.9c36.4-14.6,74.7-10.7,108.3,3.9
			c62.7,27.3,121.8,22.9,181.2-6.2c5.2-2.6,10.4-5.7,15.9-6.2c22.4-2.6,48.9-13.3,65.1,6.2c15.4,19-9.6,34.9-16.9,51.5
			c-9.9,23.4-26.8,44.3-35.9,67.9c-15.4,41.1-35.7,73.1-66.6,85.4c-10.7,9.6-25,15.9-43.2,16.4c-5.2,1.6-10.7,2.3-16.9,2.3
			s-12-0.8-17.2-2.6c-4.9,1.6-10.7,2.6-16.7,2.6c-6.2,0-12-0.8-16.9-2.3c-1,0-2.1,0.3-3.4,0.3c-26.3,0-45.3-11.5-56.7-28.1
			c-20.6-14.3-36.7-37.2-50.8-65.1C624.8,166.3,608.4,142.1,589.6,120.7z M1198.5,910c-6.8,66.6-65.3,125.7-134.6,128.3
			c-92.9,3.6-186.4,0.8-279.6,0.8c0,0.8,0,1.6,0,2.3c-80.4,0-160.6,0.5-241.1-0.3c-118.4-1-179.6-64.8-173.6-183.5
			C380.8,633,499.8,469.8,669.3,335.7c12.5-9.9,25.5-10.9,40.1-10.7c31.5,0.3,63.8,4.2,94.5-0.8c65.1-10.2,111.4,18.2,156.2,60.7
			c120.3,114.3,208.5,246.3,235.1,413.4C1201.1,835.5,1202.4,873,1198.5,910z"/>
		<path class="st0" d="M784.6,1041.7c-80.4,0-160.6,0.5-241.1-0.3c-118.4-1-179.6-64.8-173.6-183.5
			C381.1,633.3,500.1,470.1,669.5,336c12.5-9.9,25.5-10.9,40.1-10.7c31.5,0.3,63.8,4.2,94.5-0.8c65.1-10.2,111.4,18.2,156.2,60.7
			c120.3,114.3,208.5,246.3,235.1,413.4c6,37,7,74.5,3.4,111.4c-6.8,66.6-65.3,125.7-134.6,128.3c-92.9,3.6-186.4,0.8-279.6,0.8
			C784.6,1040.1,784.6,1040.9,784.6,1041.7z"/>
		<path class="st0" d="M978,63.4c-16.1-19.5-42.7-8.9-65.1-6.2c-5.5,0.5-10.7,3.6-15.9,6.2C837.7,92.6,778.6,97,715.9,69.7
			c-33.8-14.6-72.1-18.5-108.3-3.9c-26.8,10.7-44.8,23.9-18,54.9c18.5,21.3,34.9,45.6,47.6,71.1c14.1,27.9,30.2,50.8,50.8,65.1
			c-29.2-42.2-10.2-116.6,56.7-116.6c3.4,0,6.8,0.3,10.2,0.8c3.4-0.5,6.8-0.8,10.2-0.8c6,0,11.7,0.8,17.2,1.8
			c5.2-1,10.7-1.8,16.7-1.8c2.6,0,4.9,0,7.3,0.3c2.1-0.3,4.2-0.3,6.2-0.3c73.7,0,89,90.1,46.3,128.1c31-12.2,51.3-44.3,66.6-85.4
			c8.9-23.7,25.8-44.5,35.9-67.9C968.4,98.1,993.6,82.2,978,63.4z"/>
	</g>
	<rect x="602.6" y="490.1" class="st1" width="345.2" height="500.8"/>
	<text transform="matrix(1 0 0 1 602.5906 927.6623)" class="st0 st2 st3">$</text>
</g>
<path class="st0" d="M129.6,1227.3l257.2,301.4c0,0,60.9,25.3,78.9,27.3c0,0,319.1,53.9,400.9,41.1c81.7-12.8,76.8-43.7,19.8-68.7
	c0,0-269.7-35.9-360.5-42.7s-114.5-113,3.6-116.1l264.5,11.2c36.7,9.4,182.2-79.7,182.2-79.7c87.7-66.1,317.6,3.1,377.2,70.5
	l7.3,109.9v212.2c-46.3,46.9-113.5,41.9-113.5,41.9l-456.3,103.6c-75,33.1-152.8,27.1-219.2-8.1l-222.8-98.4
	c-35.4-24.7-72.9-78.4-72.9-78.4l-249.6-367c0,0,33.8,66.6-6.5-10.7C-20.6,1199.5,65.3,1123.4,129.6,1227.3z"/>
<path class="st0" d="M161.4,1199.5l233.5,255.9l21.9-72.6L253,1191.9C190.3,1137,82.5,1115.6,161.4,1199.5z"/>
<path class="st0" d="M528.7,1322.3l-141.4-137.4c-72.4-64.6-104.1-10.7-104.1-10.7l168.4,175.7L528.7,1322.3z"/>
<rect x="1413.3" y="1290.8" class="st4" width="155.4" height="540.4"/>
</svg>
